<svg width="342" height="114" viewBox="0 0 342 114" fill="none" xmlns="http://www.w3.org/2000/svg">
<path d="M27.208 18.272L27.656 13.176H27.376L24.744 18.44L10.128 40H4.36L4.36 0.799997L12.032 0.799997L12.032 22.136L11.472 27.4H11.808L14.552 21.968L29.168 0.799997H34.88L34.88 40H27.208L27.208 18.272ZM61.3129 38.264C60.1929 39.0853 58.8302 39.7013 57.2249 40.112C55.6569 40.56 54.0329 40.784 52.3529 40.784C50.1129 40.784 48.2089 40.4293 46.6409 39.72C45.1102 39.0107 43.8595 38.0213 42.8889 36.752C41.9182 35.4453 41.2089 33.8773 40.7609 32.048C40.3502 30.2187 40.1449 28.2027 40.1449 26C40.1449 21.2587 41.2089 17.6187 43.3369 15.08C45.4649 12.504 48.5635 11.216 52.6329 11.216C54.6862 11.216 56.3289 11.384 57.5609 11.72C58.8302 12.056 59.9689 12.4853 60.9769 13.008L59.2409 18.944C58.3822 18.5333 57.5235 18.216 56.6649 17.992C55.8435 17.768 54.8915 17.656 53.8089 17.656C51.7929 17.656 50.2622 18.328 49.2169 19.672C48.1715 20.9787 47.6489 23.088 47.6489 26C47.6489 27.1947 47.7795 28.296 48.0409 29.304C48.3022 30.312 48.6942 31.1893 49.2169 31.936C49.7395 32.6827 50.4115 33.28 51.2329 33.728C52.0915 34.1387 53.0809 34.344 54.2009 34.344C55.4329 34.344 56.4782 34.1947 57.3369 33.896C58.1955 33.56 58.9609 33.168 59.6329 32.72L61.3129 38.264ZM85.602 18.44L77.818 18.44L77.818 40H70.314L70.314 18.44H62.306V12L85.602 12V18.44ZM87.0667 26C87.0667 21.2587 88.2241 17.6187 90.5388 15.08C92.8534 12.504 96.1014 11.216 100.283 11.216C102.523 11.216 104.464 11.5707 106.107 12.28C107.749 12.9893 109.112 13.9973 110.195 15.304C111.277 16.5733 112.08 18.1227 112.603 19.952C113.163 21.7813 113.443 23.7973 113.443 26C113.443 30.7413 112.285 34.4 109.971 36.976C107.693 39.5147 104.464 40.784 100.283 40.784C98.0428 40.784 96.1014 40.4293 94.4588 39.72C92.8161 39.0107 91.4348 38.0213 90.3148 36.752C89.2321 35.4453 88.4108 33.8773 87.8508 32.048C87.3281 30.2187 87.0667 28.2027 87.0667 26ZM94.5708 26C94.5708 27.232 94.6828 28.3707 94.9068 29.416C95.1308 30.4613 95.4668 31.376 95.9148 32.16C96.3628 32.944 96.9414 33.56 97.6508 34.008C98.3974 34.4187 99.2748 34.624 100.283 34.624C102.187 34.624 103.605 33.9333 104.539 32.552C105.472 31.1707 105.939 28.9867 105.939 26C105.939 23.424 105.509 21.352 104.651 19.784C103.792 18.1787 102.336 17.376 100.283 17.376C98.4908 17.376 97.0908 18.048 96.0828 19.392C95.0748 20.736 94.5708 22.9387 94.5708 26ZM118.489 12L123.809 12L124.649 15.36H124.873C125.844 13.9413 126.982 12.896 128.289 12.224C129.633 11.552 131.257 11.216 133.161 11.216C136.67 11.216 139.302 12.336 141.057 14.576C142.812 16.7787 143.689 20.344 143.689 25.272C143.689 27.6613 143.409 29.8267 142.849 31.768C142.289 33.672 141.449 35.296 140.329 36.64C139.246 37.984 137.902 39.0107 136.297 39.72C134.729 40.4293 132.918 40.784 130.865 40.784C129.708 40.784 128.756 40.6907 128.009 40.504C127.262 40.3547 126.516 40.0933 125.769 39.72V51.2H118.489L118.489 12ZM130.977 17.376C129.558 17.376 128.438 17.7307 127.617 18.44C126.833 19.1493 126.217 20.2133 125.769 21.632L125.769 33.28C126.292 33.6907 126.852 34.0267 127.449 34.288C128.084 34.512 128.905 34.624 129.913 34.624C132.004 34.624 133.572 33.896 134.617 32.44C135.662 30.9467 136.185 28.5013 136.185 25.104C136.185 22.64 135.774 20.736 134.953 19.392C134.132 18.048 132.806 17.376 130.977 17.376ZM165.587 27.232L165.867 23.256H165.699L163.291 27.344L153.323 40H148.731V12H156.011V25.328L155.675 29.136H155.899L158.195 25.16L168.275 12H172.867V40H165.587V27.232ZM185.183 12V18.384C185.183 19.5413 185.22 20.5493 185.295 21.408C185.407 22.2293 185.593 22.92 185.855 23.48C186.153 24.0027 186.545 24.3947 187.031 24.656C187.553 24.9173 188.225 25.048 189.047 25.048C190.129 25.048 191.063 24.9173 191.847 24.656C192.668 24.3947 193.34 24.0773 193.863 23.704V12H201.143V40L193.863 40V29.024C193.303 29.4347 192.444 29.9013 191.287 30.424C190.129 30.9093 188.58 31.152 186.639 31.152C185.257 31.152 184.025 31.0027 182.943 30.704C181.86 30.4053 180.945 29.8827 180.199 29.136C179.452 28.3893 178.873 27.4 178.463 26.168C178.089 24.936 177.903 23.3867 177.903 21.52V12H185.183ZM229.92 37.592C228.8 38.488 227.269 39.2533 225.328 39.888C223.424 40.4853 221.389 40.784 219.224 40.784C214.707 40.784 211.403 39.4773 209.312 36.864C207.221 34.2133 206.176 30.592 206.176 26C206.176 21.072 207.352 17.376 209.704 14.912C212.056 12.448 215.36 11.216 219.616 11.216C221.035 11.216 222.416 11.4027 223.76 11.776C225.104 12.1493 226.299 12.7653 227.344 13.624C228.389 14.4827 229.229 15.64 229.864 17.096C230.499 18.552 230.816 20.3627 230.816 22.528C230.816 23.312 230.76 24.152 230.648 25.048C230.573 25.944 230.443 26.8773 230.256 27.848H213.456C213.568 30.2 214.165 31.9733 215.248 33.168C216.368 34.3627 218.16 34.96 220.624 34.96C222.155 34.96 223.517 34.736 224.712 34.288C225.944 33.8027 226.877 33.3173 227.512 32.832L229.92 37.592ZM219.504 17.04C217.6 17.04 216.181 17.6187 215.248 18.776C214.352 19.896 213.811 21.408 213.624 23.312H224.04C224.189 21.296 223.872 19.7467 223.088 18.664C222.341 17.5813 221.147 17.04 219.504 17.04ZM255.508 38.264C254.388 39.0853 253.026 39.7013 251.42 40.112C249.852 40.56 248.228 40.784 246.548 40.784C244.308 40.784 242.404 40.4293 240.836 39.72C239.306 39.0107 238.055 38.0213 237.084 36.752C236.114 35.4453 235.404 33.8773 234.956 32.048C234.546 30.2187 234.34 28.2027 234.34 26C234.34 21.2587 235.404 17.6187 237.532 15.08C239.66 12.504 242.759 11.216 246.828 11.216C248.882 11.216 250.524 11.384 251.756 11.72C253.026 12.056 254.164 12.4853 255.172 13.008L253.436 18.944C252.578 18.5333 251.719 18.216 250.86 17.992C250.039 17.768 249.087 17.656 248.004 17.656C245.988 17.656 244.458 18.328 243.412 19.672C242.367 20.9787 241.844 23.088 241.844 26C241.844 27.1947 241.975 28.296 242.236 29.304C242.498 30.312 242.89 31.1893 243.412 31.936C243.935 32.6827 244.607 33.28 245.428 33.728C246.287 34.1387 247.276 34.344 248.396 34.344C249.628 34.344 250.674 34.1947 251.532 33.896C252.391 33.56 253.156 33.168 253.828 32.72L255.508 38.264ZM269.151 28.408H267.191V40H259.911V12H267.191V23.928L268.927 23.144L275.479 12L283.263 12L276.487 22.64L273.631 24.768L276.767 26.952L284.327 40H275.983L269.151 28.408ZM304.165 27.232L304.445 23.256H304.277L301.869 27.344L291.901 40L287.309 40V12H294.589V25.328L294.253 29.136H294.477L296.773 25.16L306.853 12H311.445V40H304.165V27.232ZM340.225 37.592C339.105 38.488 337.574 39.2533 335.633 39.888C333.729 40.4853 331.694 40.784 329.529 40.784C325.011 40.784 321.707 39.4773 319.617 36.864C317.526 34.2133 316.481 30.592 316.481 26C316.481 21.072 317.657 17.376 320.009 14.912C322.361 12.448 325.665 11.216 329.921 11.216C331.339 11.216 332.721 11.4027 334.065 11.776C335.409 12.1493 336.603 12.7653 337.649 13.624C338.694 14.4827 339.534 15.64 340.169 17.096C340.803 18.552 341.121 20.3627 341.121 22.528C341.121 23.312 341.065 24.152 340.953 25.048C340.878 25.944 340.747 26.8773 340.561 27.848L323.761 27.848C323.873 30.2 324.47 31.9733 325.553 33.168C326.673 34.3627 328.465 34.96 330.929 34.96C332.459 34.96 333.822 34.736 335.017 34.288C336.249 33.8027 337.182 33.3173 337.817 32.832L340.225 37.592ZM329.809 17.04C327.905 17.04 326.486 17.6187 325.553 18.776C324.657 19.896 324.115 21.408 323.929 23.312L334.345 23.312C334.494 21.296 334.177 19.7467 333.393 18.664C332.646 17.5813 331.451 17.04 329.809 17.04ZM32.024 113.384H26.704L25.864 107H7.048L6.208 113.384H0.888L0.888 100.56H4.192C4.49067 100.149 4.864 99.4587 5.312 98.488C5.79733 97.48 6.264 96.1173 6.712 94.4C7.19733 92.6827 7.608 90.5547 7.944 88.016C8.28 85.4773 8.448 82.472 8.448 79H27.936L27.936 100.56H32.024L32.024 113.384ZM20.656 100.896L20.656 85.16H14.776C14.7013 86.504 14.5707 87.9413 14.384 89.472C14.1973 90.9653 13.9547 92.4213 13.656 93.84C13.3947 95.2587 13.0773 96.584 12.704 97.816C12.3307 99.048 11.92 100.075 11.472 100.896H20.656ZM35.8521 80.624C37.3455 79.952 39.1188 79.4293 41.1721 79.056C43.2255 78.6453 45.3721 78.44 47.6121 78.44C49.5535 78.44 51.1775 78.6827 52.4841 79.168C53.7908 79.616 54.8175 80.2693 55.5641 81.128C56.3481 81.9867 56.8895 83.0133 57.1881 84.208C57.5241 85.4027 57.6921 86.7467 57.6921 88.24C57.6921 89.8827 57.6361 91.544 57.5241 93.224C57.4121 94.8667 57.3375 96.4907 57.3001 98.096C57.3001 99.7013 57.3561 101.269 57.4681 102.8C57.5801 104.293 57.8601 105.712 58.3081 107.056H52.3721L51.1961 103.192H50.9161C50.1695 104.349 49.1241 105.357 47.7801 106.216C46.4735 107.037 44.7748 107.448 42.6841 107.448C41.3775 107.448 40.2015 107.261 39.1561 106.888C38.1108 106.477 37.2148 105.917 36.4681 105.208C35.7215 104.461 35.1428 103.603 34.7321 102.632C34.3215 101.624 34.1161 100.504 34.1161 99.272C34.1161 97.5547 34.4895 96.1173 35.2361 94.96C36.0201 93.7653 37.1215 92.8133 38.5401 92.104C39.9961 91.3573 41.7135 90.8533 43.6921 90.592C45.7081 90.2933 47.9481 90.2 50.4121 90.312C50.6735 88.2213 50.5241 86.728 49.9641 85.832C49.4041 84.8987 48.1535 84.432 46.2121 84.432C44.7561 84.432 43.2068 84.5813 41.5641 84.88C39.9588 85.1787 38.6335 85.5707 37.5881 86.056L35.8521 80.624ZM45.0921 101.456C46.5481 101.456 47.7055 101.139 48.5641 100.504C49.4228 99.832 50.0575 99.1227 50.4681 98.376V94.736C49.3108 94.624 48.1908 94.6053 47.1081 94.68C46.0628 94.7547 45.1295 94.9227 44.3081 95.184C43.4868 95.4453 42.8335 95.8187 42.3481 96.304C41.8628 96.7893 41.6201 97.4053 41.6201 98.152C41.6201 99.1973 41.9188 100.019 42.5161 100.616C43.1508 101.176 44.0095 101.456 45.0921 101.456ZM83.9614 85.44H76.1774V107H68.6734V85.44H60.6654V79H83.9614V85.44ZM94.4876 100.896C95.6076 101.12 96.6716 101.232 97.6796 101.232C99.3596 101.232 100.536 100.933 101.208 100.336C101.88 99.7013 102.216 98.7307 102.216 97.424C102.216 96.2293 101.88 95.3333 101.208 94.736C100.536 94.1013 99.4156 93.784 97.8476 93.784C96.6156 93.784 95.4956 93.9147 94.4876 94.176V100.896ZM94.4876 88.968C95.3836 88.8187 96.2796 88.7253 97.1756 88.688C98.109 88.6133 98.949 88.576 99.6956 88.576C101.6 88.576 103.186 88.8 104.456 89.248C105.725 89.6587 106.752 90.256 107.536 91.04C108.32 91.824 108.88 92.7573 109.216 93.84C109.552 94.8853 109.72 96.024 109.72 97.256C109.72 98.936 109.496 100.411 109.048 101.68C108.6 102.949 107.872 104.013 106.864 104.872C105.856 105.693 104.549 106.328 102.944 106.776C101.338 107.187 99.3596 107.392 97.0076 107.392C94.8796 107.392 93.0316 107.355 91.4636 107.28C89.933 107.205 88.5143 107.112 87.2076 107V79H94.4876V88.968ZM112.912 79H120.192V107H112.912V79Z" fill="#42567A"/>
</svg>
